# xmcd
#
# Track frame offsets:
# 150
# 18569
# 38757
# 55133
# 75214
# 89854
# 111135
# 129921
# 151346
# 164693
# 179252
# 201125
# 214835
# 236193
# 251616
# 270018
#
# Disc length: 3797 seconds
#
#
# Revision: 0
# Processed by: cddbd v1.4PL0 Copyright (c) Steve Scherf et al.
# Submitted via: FreeRIP 2.35 
#
DISCID=d20ed310
DTITLE=Vários - Clube dos Namorados 
DYEAR=1900
DGENRE=
TTITLE0=Love By grace - Lara Fabian
TTITLE1=I will Always Love You - Whitney Houston
TTITLE2=Dust In The Wind - Sarah Brightman
TTITLE3=Un-break My Heart - Tony Braxton
TTITLE4=You've Got a Way - Shania Twain
TTITLE5=In Moment Love - Whitney Houston
TTITLE6=Self Pity - Lucifer
TTITLE7=Just the Way You Are - Barry White
TTITLE8=Over You - Lane Brody
TTITLE9=Hurt - Carly Simon
TTITLE10=From This Moment On - Shania Twain
TTITLE11=Give me your heart tonight- Sharkin' Stevens
TTITLE12=The Power of Love - Celine Dion
TTITLE13=Nothing Gonna Change My Love For You - Richard Lugo
TTITLE14=Turnin - Suzanne Ciani
TTITLE15=Better Man - Robbie Willians
EXTD=
EXTT0=
EXTT1=
EXTT2=
EXTT3=
EXTT4=
EXTT5=
EXTT6=
EXTT7=
EXTT8=
EXTT9=
EXTT10=
EXTT11=
EXTT12=
EXTT13=
EXTT14=
EXTT15=
PLAYORDER=
